<svg xmlns="http://www.w3.org/2000/svg" xmlns:xlink="http://www.w3.org/1999/xlink" viewBox="478.95 279.34 389.11 209.33">
	<g transform="translate(182.945)">
		<g style="font-style:normal;font-weight:400;font-size:72px;line-height:1;font-family:&quot;Brandmark Sans 1 Color&quot;;font-variant-ligatures:normal;text-align:center;text-anchor:middle">
			<g aria-label="^I">
				<path fill="#fc5c7d" d="m318.753 304.975-22.752-22.754h22.752z" class="c3">
				</path>
				<path fill="#efefef" d="M296.001 320.527h22.754v57.702h-22.754z" class="c1">
				</path>
			</g>
			<path fill="#efefef" d="M403.691 343.284c0 23.328-13.25 36.578-30.82 36.578-7.344 0-14.113-3.024-19.441-8.354v6.625h-20.305v-96.056h20.305v32.98c5.185-5.473 12.097-8.21 19.299-8.21 17.857 0 30.962 13.826 30.962 36.437zm-36.724 18.289c9.65 0 15.842-7.057 15.697-18.147 0-11.088-6.191-18.289-15.697-18.289-4.897 0-10.801 2.88-13.537 6.624v23.331c2.736 3.745 8.64 6.48 13.537 6.48z" aria-label="b" class="c1">
			</path>
			<path fill="#efefef" d="M488.771 378.133h-20.449v-6.625c-5.183 5.473-12.097 8.354-19.441 8.354-17.57 0-30.818-13.25-30.818-36.436 0-22.753 13.105-36.579 30.818-36.579 7.201 0 14.113 2.737 19.441 8.21v-32.98h20.45v96.056zm-34.273-16.56c5.328 0 10.943-2.736 13.824-6.48V331.76c-2.88-3.888-8.64-6.624-13.824-6.624-9.361 0-15.555 7.344-15.555 18.29 0 10.8 6.194 18.146 15.555 18.146z" aria-label="d" class="c1">
			</path>
			<path fill="#efefef" d="M567.518 333.2v44.93H547.21v-5.04c-4.897 4.321-12.098 6.768-20.018 6.768-11.088 0-24.193-7.488-24.193-23.04 0-16.131 13.105-22.466 24.193-22.466 7.92 0 15.121 2.303 20.018 6.48v-7.345c0-5.76-5.184-9.505-13.248-9.505-7.201 0-13.537 2.592-19.01 7.633l-1.873 1.728-7.92-14.113c8.64-8.641 20.881-12.385 31.826-12.385 15.842 0 30.387 6.337 30.532 26.354zm-33.123 32.258c5.472 0 10.08-1.728 12.671-4.754v-7.2c-2.591-3.024-7.343-4.753-12.671-4.753-5.041 0-11.09 2.305-11.09 8.498 0 5.615 5.617 8.21 11.09 8.21zM646.549 333.2v44.93h-20.307v-5.04c-4.896 4.321-12.097 6.768-20.017 6.768-11.088 0-24.194-7.488-24.194-23.04 0-16.131 13.106-22.466 24.194-22.466 7.92 0 15.12 2.303 20.017 6.48v-7.345c0-5.76-5.183-9.505-13.248-9.505-7.201 0-13.537 2.592-19.01 7.633l-1.873 1.728-7.92-14.113c8.641-8.641 20.881-12.385 31.827-12.385 15.841 0 30.386 6.337 30.53 26.354zm-33.123 32.258c5.472 0 10.08-1.728 12.672-4.754v-7.2c-2.592-3.024-7.344-4.753-12.672-4.753-5.041 0-11.09 2.305-11.09 8.498 0 5.615 5.617 8.21 11.09 8.21z" aria-label="a" class="c1">
			</path>
			<path fill="#efefef" d="M661.063 291.15c0-6.625 5.328-11.81 11.953-11.81 6.623 0 12.095 5.185 12.095 11.81 0 6.624-5.472 11.954-12.095 11.954-6.48 0-11.953-5.473-11.953-11.954zm1.87 17.426h20.452v69.558h-20.451v-69.558z" aria-label="i" class="c1">
			</path>
			<g aria-label="^C">
				<path fill="#fc5c7d" d="M296 430.87c3.84-23.618 24.385-41.57 49.06-41.57 18.53 0 34.754 10.176 43.3 25.25l-20.546 10.176c-4.705-7.488-13.154-12.48-22.658-12.48-12.097-.097-22.273 7.776-25.73 18.625H296z" class="c3">
				</path>
				<path fill="#efefef" d="M345.06 488.573c-24.675 0-45.124-17.954-49.06-41.573h23.426c3.457 10.849 13.537 18.722 25.537 18.722 9.506 0 17.857-4.993 22.658-12.481l20.738 9.985c-8.545 15.169-24.673 25.347-43.298 25.347z" class="c1">
				</path>
			</g>
			<path fill="#efefef" d="M422.898 486.796h-20.304v-96.057h20.304v96.057z" aria-label="l" class="c1">
			</path>
			<path fill="#efefef" d="M510.201 452.087c0 20.162-16.418 36.58-36.578 36.58-20.162 0-36.436-16.418-36.436-36.58s16.274-36.436 36.436-36.436c20.16 0 36.578 16.274 36.578 36.436zm-36.578 16.273c8.928 0 16.273-7.056 16.273-16.129s-7.345-16.273-16.273-16.273c-8.93 0-16.13 7.344-16.13 16.273s7.2 16.13 16.13 16.13z" aria-label="o" class="c1">
			</path>
			<path fill="#efefef" d="M589.611 486.793h-20.304v-6.768c-5.041 4.463-12.53 8.496-22.467 8.496-15.266 0-22.465-8.353-22.465-21.89v-49.396h20.305v42.196c0 7.633 3.168 10.801 10.8 10.801 7.346 0 11.954-4.465 13.827-6.625v-46.372h20.304v69.558z" aria-label="u" class="c1">
			</path>
			<path fill="#efefef" d="M674.678 486.796h-20.45v-6.625c-5.183 5.473-12.097 8.353-19.44 8.353-17.571 0-30.82-13.25-30.82-36.435 0-22.754 13.106-36.58 30.82-36.58 7.2 0 14.112 2.737 19.44 8.21v-32.98h20.45v96.057zm-34.274-16.56c5.328 0 10.944-2.737 13.825-6.481v-23.331c-2.881-3.889-8.641-6.624-13.825-6.624-9.361 0-15.554 7.344-15.554 18.289 0 10.8 6.193 18.146 15.554 18.146z" aria-label="d" class="c1">
			</path>
		</g>
	</g>
</svg>
